
<svg version="1.1" id="Layer_2" xmlns="http://www.w3.org/2000/svg" xmlns:xlink="http://www.w3.org/1999/xlink" x="0px" y="0px"
	 width="500px"  viewBox="0 0 160.125 415.746" enable-background="new 0 0 160.125 415.746"
	 xml:space="preserve">

	 <defs>
	 		<style>
	 				#kclogo {
	 					stroke-dasharray: 800;
	 					stroke-dashoffset: 0;
	 					-webkit-animation: dash 2s linear forwards;
	 					-o-animation: dash 2s linear forwards;
	 					-moz-animation: dash 2s linear forwards;
	 					animation: dash 2s linear forwards;
	 				}

	 				@-webkit-keyframes dash{
	 						from{
	 								stroke-dashoffset: 800;
	 						}

	 						to{
	 								stroke-dashoffset: 0;
	 						}
	 				}

	 		</style>

	 </defs>

<path id="kclogo" fill="none" stroke="#000000" stroke-miterlimit="10" d="M4.451,1.464C3.452,1.908,2.454,2.352,1.455,2.796
	c3.467,7.462,6.935,14.923,10.402,22.385c3.467,10.319,6.935,20.637,10.402,30.956c1.942,4.466,3.883,8.932,5.825,13.397
	c0.277,2.358,0.555,4.716,0.832,7.073c-0.361,7.434-0.721,14.868-1.082,22.302c1.026,2.746,2.053,5.492,3.079,8.238
	c0,0.832,0,1.664,0,2.496c0.388-0.028,0.777-0.055,1.165-0.083c0.583,0.555,1.165,1.11,1.748,1.664
	c0.028,1.165,0.055,2.33,0.083,3.495c0.999,0,1.997,0,2.996,0c1.359,1.775,2.718,3.551,4.078,5.326
	c0.166,0.666,0.333,1.331,0.499,1.997c0.749,0.638,1.498,1.276,2.247,1.914c0.444,1.526,0.888,3.051,1.331,4.577
	c0.361,2.025,0.721,4.05,1.082,6.075c-0.083,3.578-0.166,7.156-0.25,10.735c0.444,2.496,0.888,4.993,1.331,7.489
	c0,12.926,0,25.852,0,38.778c-0.083,14.313-0.166,28.626-0.25,42.939c-0.028,12.732-0.055,25.464-0.083,38.196
	c0.361,2.913,0.721,5.825,1.082,8.738c0.028,10.235,0.055,20.471,0.083,30.706c0,4.66,0,9.32,0,13.98
	c0.305,1.304,0.61,2.607,0.915,3.911c-0.083,0.61-0.166,1.22-0.25,1.831c0.277,0.305,0.555,0.61,0.832,0.915
	c0.638,1.553,1.276,3.107,1.914,4.66c1.054,1.304,2.108,2.607,3.162,3.911c1.415,0.888,2.829,1.775,4.244,2.663
	c0.999,0.971,1.997,1.942,2.996,2.912c0.028,0.388,0.055,0.777,0.083,1.165c-2.33,0.055-4.66,0.111-6.99,0.166
	c-1.498,0.083-2.996,0.166-4.494,0.25c-0.333-0.416-0.666-0.832-0.999-1.248c-1.553,0-3.107,0-4.66,0
	c-1.775-1.193-3.55-2.385-5.326-3.578c-0.166-0.361-0.333-0.721-0.499-1.082c-0.832-0.222-1.664-0.444-2.496-0.666
	c-0.527-0.139-1.054-0.277-1.581-0.416c-0.194,0.555-0.388,1.109-0.583,1.664c-0.444,0.416-0.888,0.832-1.331,1.248
	c-0.028,0.499-0.055,0.999-0.083,1.498c0.915,0.693,1.831,1.387,2.746,2.08c1.137,0.388,2.275,0.777,3.412,1.165
	c0.25,0.139,0.499,0.277,0.749,0.416c0.111,0.388,0.222,0.777,0.333,1.165c0.999,0.055,1.997,0.111,2.996,0.166
	c5.825,0,11.65,0,17.475,0c10.762-0.111,21.525-0.222,32.287-0.333c14.285,0.166,28.57,0.333,42.856,0.499
	c2.108,0.416,4.216,0.832,6.324,1.248c1.498,0.749,2.996,1.498,4.494,2.247c1.498,1.442,2.996,2.885,4.494,4.327
	c0.999,1.692,1.997,3.384,2.996,5.076c0.333,1.637,0.666,3.273,0.999,4.91c0.333,1.831,0.666,3.661,0.999,5.492
	c-0.055,7.378-0.111,14.757-0.166,22.135c-0.028,0.666-0.055,1.331-0.083,1.997c-1.692,2.496-3.384,4.993-5.076,7.489
	c-1.359,0.999-2.718,1.997-4.078,2.996c-1.165,0.638-2.33,1.276-3.495,1.914c-1.359,0.361-2.718,0.721-4.078,1.082
	c0.111,0.666,0.222,1.331,0.333,1.997c1.637-0.527,3.273-1.054,4.91-1.581c1.775-0.971,3.551-1.942,5.326-2.912
	c1.082-0.999,2.164-1.997,3.245-2.996c0.915-1.248,1.831-2.496,2.746-3.745c0.804-1.886,1.609-3.772,2.413-5.659
	c0.166-2.053,0.333-4.105,0.499-6.158c0-6.047,0-12.094,0-18.141c-0.166-1.997-0.333-3.994-0.499-5.991
	c-0.361-1.359-0.721-2.718-1.082-4.078c-0.971-1.886-1.942-3.772-2.913-5.659c-1.942-1.692-3.883-3.384-5.825-5.076
	c-1.637-0.721-3.273-1.442-4.91-2.164c-0.111-0.583-0.222-1.165-0.333-1.747c-1.886,0.194-3.772,0.388-5.659,0.583
	c-8.016,0-16.033,0-24.049,0c-11.872,0.083-23.744,0.166-35.616,0.25c-0.139-0.499-0.277-0.999-0.416-1.498c-2.635,0-5.27,0-7.905,0
	c-1.304-0.804-2.607-1.609-3.911-2.413c-2.385-1.304-4.771-2.607-7.156-3.911c-1.137-1.331-2.275-2.663-3.412-3.994
	c-1.11-2.025-2.219-4.05-3.329-6.075c-0.333-1.886-0.666-3.772-0.999-5.659c0.028-3.606,0.055-7.212,0.083-10.818
	c-0.028-9.875-0.055-19.75-0.083-29.624c-0.111-5.964-0.222-11.927-0.333-17.891c-0.305-8.294-0.61-16.588-0.915-24.881
	c-0.055-5.603-0.111-11.206-0.166-16.809c0.166-0.638,0.333-1.276,0.499-1.914c0.333-0.194,0.666-0.388,0.999-0.583
	c-0.139-6.186-0.277-12.371-0.416-18.557c0.194-1.748,0.388-3.495,0.583-5.243c-0.472-0.583-0.943-1.165-1.415-1.748
	c-0.028-13.093-0.055-26.185-0.083-39.277c-0.028-1.72-0.055-3.439-0.083-5.159c-0.25-1.276-0.499-2.552-0.749-3.828
	c-0.111-2.08-0.222-4.161-0.333-6.241c0.139-4.161,0.277-8.322,0.416-12.482c-0.499-1.636-0.999-3.273-1.498-4.91
	c-0.499-1.248-0.999-2.496-1.498-3.745c-1.137-1.442-2.275-2.885-3.412-4.327c-1.11-1.692-2.219-3.384-3.329-5.076
	c-0.111-1.026-0.222-2.052-0.333-3.079c-0.693-0.055-1.387-0.111-2.08-0.167c-1.22-2.191-2.441-4.383-3.661-6.574
	c2.247,1.442,4.494,2.885,6.74,4.327c0.277-0.416,0.555-0.832,0.832-1.248c-1.969-1.609-3.939-3.218-5.908-4.827
	c-0.028-1.137-0.055-2.274-0.083-3.412c-0.472-0.055-0.943-0.111-1.415-0.167c-0.166-3.439-0.333-6.879-0.499-10.319
	c0.139-4.521,0.277-9.043,0.416-13.564c-0.055-0.971-0.111-1.942-0.166-2.913c-0.444-0.86-0.888-1.72-1.331-2.58
	c-2.025-5.076-4.05-10.152-6.075-15.228c-1.942-5.603-3.883-11.206-5.825-16.81c-1.47-4.272-2.94-8.543-4.41-12.815
	c-1.47-3.19-2.94-6.38-4.41-9.57c-1.276-2.607-2.552-5.215-3.828-7.822C6.004,4.183,5.227,2.823,4.451,1.464z"/>
</svg>
